<svg width="20" height="20" viewBox="0 0 20 20" fill="none" xmlns="http://www.w3.org/2000/svg">
<path d="M7.9161 1.45825C7.56972 1.45825 7.25945 1.67253 7.13678 1.99646L6.94545 2.50169C6.5353 2.46071 6.15741 2.41981 5.8515 2.38546C5.62282 2.35978 5.43484 2.33782 5.30427 2.32231L5.15364 2.30424L5.10249 2.29798C4.64574 2.24143 4.22898 2.56576 4.17242 3.02251C4.11586 3.47925 4.44027 3.89537 4.89702 3.95194L4.95268 3.95874L5.10766 3.97734C5.24128 3.99322 5.43284 4.01559 5.66553 4.04172C6.1305 4.09393 6.76158 4.16132 7.4237 4.22175C8.31685 4.30326 9.29587 4.37492 9.99944 4.37492C10.703 4.37492 11.682 4.30326 12.5752 4.22175C13.2373 4.16132 13.8684 4.09393 14.3333 4.04172C14.566 4.01559 14.7576 3.99322 14.8912 3.97734L15.0462 3.95874L15.1017 3.95195C15.5585 3.89539 15.883 3.47925 15.8265 3.02251C15.7699 2.56576 15.3538 2.24135 14.897 2.2979L14.8452 2.30424L14.6946 2.32231C14.564 2.33782 14.376 2.35978 14.1474 2.38546C13.8415 2.41981 13.4636 2.46071 13.0534 2.50169L12.8621 1.99646C12.7394 1.67253 12.4292 1.45825 12.0828 1.45825H7.9161Z" fill="black"/>
<path d="M9.1661 9.79159C9.1661 9.33135 8.79301 8.95825 8.33277 8.95825C7.87253 8.95825 7.49944 9.33135 7.49944 9.79159V13.9583C7.49944 14.4185 7.87253 14.7916 8.33277 14.7916C8.79301 14.7916 9.1661 14.4185 9.1661 13.9583V9.79159Z" fill="black"/>
<path d="M11.6661 8.95825C12.1263 8.95825 12.4994 9.33135 12.4994 9.79159V13.9583C12.4994 14.4185 12.1263 14.7916 11.6661 14.7916C11.2059 14.7916 10.8328 14.4185 10.8328 13.9583V9.79159C10.8328 9.33135 11.2059 8.95825 11.6661 8.95825Z" fill="black"/>
<path fill-rule="evenodd" clip-rule="evenodd" d="M15.7575 6.70872C15.833 5.65141 14.9215 4.80378 13.8855 4.9235C12.8255 5.046 11.1897 5.20825 9.99944 5.20825C8.80915 5.20825 7.17339 5.046 6.11336 4.9235C5.07742 4.80378 4.16587 5.65141 4.24139 6.70872L4.95534 16.7039C5.00946 17.4616 5.57382 18.1023 6.34831 18.2187C7.17881 18.3436 8.70272 18.5431 10.0004 18.5416C11.2821 18.5401 12.8122 18.3415 13.6464 18.2177C14.4222 18.1026 14.9894 17.4616 15.0437 16.7017L15.7575 6.70872ZM14.0769 6.57915C14.0797 6.57881 14.082 6.57901 14.082 6.57901L14.0842 6.57951C14.086 6.58015 14.0889 6.58167 14.0918 6.5844C14.0937 6.5862 14.0951 6.5884 14.0951 6.5884L14.095 6.58997L13.382 16.572C12.5565 16.694 11.1415 16.8736 9.99847 16.8749C8.84301 16.8763 7.43683 16.6965 6.61695 16.5737L5.90382 6.58997L5.90376 6.5884C5.90376 6.5884 5.90518 6.5862 5.90708 6.5844C5.90995 6.58167 5.91286 6.58015 5.91471 6.57951L5.91691 6.57901C5.91691 6.57901 5.91913 6.57881 5.92202 6.57915C6.98392 6.70187 8.70397 6.87492 9.99944 6.87492C11.2949 6.87492 13.0149 6.70187 14.0769 6.57915Z" fill="black"/>
</svg>
