<svg width="20" height="21" viewBox="0 0 20 21" fill="none" xmlns="http://www.w3.org/2000/svg">
<path d="M14.166 15.9652H10.8327L7.12434 18.4319C6.57434 18.7985 5.83268 18.4069 5.83268 17.7402V15.9652C3.33268 15.9652 1.66602 14.2986 1.66602 11.7986V6.7985C1.66602 4.2985 3.33268 2.63184 5.83268 2.63184H14.166C16.666 2.63184 18.3327 4.2985 18.3327 6.7985V11.7986C18.3327 14.2986 16.666 15.9652 14.166 15.9652Z" stroke="#E7E7E7" stroke-width="1.5" stroke-miterlimit="10" stroke-linecap="round" stroke-linejoin="round"/>
<path d="M10.0005 10.0735V9.89852C10.0005 9.33185 10.3505 9.03184 10.7005 8.79017C11.0422 8.55684 11.3838 8.25685 11.3838 7.70685C11.3838 6.94018 10.7672 6.32349 10.0005 6.32349C9.23383 6.32349 8.61719 6.94018 8.61719 7.70685" stroke="#E7E7E7" stroke-width="1.5" stroke-linecap="round" stroke-linejoin="round"/>
<path d="M9.9969 12.0653H10.0044" stroke="#E7E7E7" stroke-width="1.5" stroke-linecap="round" stroke-linejoin="round"/>
</svg>
