<svg width="22" height="21" viewBox="0 0 22 21" fill="none" xmlns="http://www.w3.org/2000/svg">
<path d="M14.2405 20.8769H14.1105C9.6705 20.8769 7.5305 19.1269 7.1605 15.2069C7.1205 14.7969 7.4205 14.4269 7.8405 14.3869C8.2405 14.3469 8.6205 14.6569 8.6605 15.0669C8.9505 18.2069 10.4305 19.3769 14.1205 19.3769H14.2505C18.3205 19.3769 19.7605 17.9369 19.7605 13.8669V7.34691C19.7605 3.27691 18.3205 1.83691 14.2505 1.83691H14.1205C10.4105 1.83691 8.9305 3.02691 8.6605 6.22691C8.6105 6.63691 8.2605 6.94691 7.8405 6.90691C7.4205 6.87691 7.1205 6.50691 7.1505 6.09691C7.4905 2.11691 9.6405 0.336914 14.1105 0.336914H14.2405C19.1505 0.336914 21.2505 2.43691 21.2505 7.34691V13.8669C21.2505 18.7769 19.1505 20.8769 14.2405 20.8769Z" fill="#E7E7E7"/>
<path d="M13.9991 11.3569H2.61914C2.20914 11.3569 1.86914 11.0169 1.86914 10.6069C1.86914 10.1969 2.20914 9.85693 2.61914 9.85693H13.9991C14.4091 9.85693 14.7491 10.1969 14.7491 10.6069C14.7491 11.0169 14.4091 11.3569 13.9991 11.3569Z" fill="#E7E7E7"/>
<path d="M4.84945 14.707C4.65945 14.707 4.46945 14.637 4.31945 14.487L0.969453 11.137C0.679453 10.847 0.679453 10.367 0.969453 10.077L4.31945 6.72702C4.60945 6.43702 5.08945 6.43702 5.37945 6.72702C5.66945 7.01702 5.66945 7.49702 5.37945 7.78702L2.55945 10.607L5.37945 13.427C5.66945 13.717 5.66945 14.197 5.37945 14.487C5.23945 14.637 5.03945 14.707 4.84945 14.707Z" fill="#E7E7E7"/>
</svg>
