<svg width="20" height="21" viewBox="0 0 20 21" fill="none" xmlns="http://www.w3.org/2000/svg">
<path d="M6.03268 2.27368H4.44935C2.62435 2.27368 1.66602 3.23201 1.66602 5.04868V6.63201C1.66602 8.44868 2.62435 9.40702 4.44102 9.40702H6.02435C7.84102 9.40702 8.79935 8.44868 8.79935 6.63201V5.04868C8.80768 3.23201 7.84935 2.27368 6.03268 2.27368Z" fill="#FEF5EE"/>
<path opacity="0.4" d="M15.5576 2.27368H13.9742C12.1576 2.27368 11.1992 3.23201 11.1992 5.04868V6.63201C11.1992 8.44868 12.1576 9.40702 13.9742 9.40702H15.5576C17.3742 9.40702 18.3326 8.44868 18.3326 6.63201V5.04868C18.3326 3.23201 17.3742 2.27368 15.5576 2.27368Z" fill="#FEF5EE"/>
<path d="M15.5576 11.7986H13.9742C12.1576 11.7986 11.1992 12.7569 11.1992 14.5736V16.1569C11.1992 17.9736 12.1576 18.9319 13.9742 18.9319H15.5576C17.3742 18.9319 18.3326 17.9736 18.3326 16.1569V14.5736C18.3326 12.7569 17.3742 11.7986 15.5576 11.7986Z" fill="#FEF5EE"/>
<path opacity="0.4" d="M6.03268 11.7986H4.44935C2.62435 11.7986 1.66602 12.7569 1.66602 14.5736V16.1569C1.66602 17.9819 2.62435 18.9403 4.44102 18.9403H6.02435C7.84102 18.9403 8.79935 17.9819 8.79935 16.1653V14.5819C8.80768 12.7569 7.84935 11.7986 6.03268 11.7986Z" fill="#FEF5EE"/>
</svg>
