<svg width="40" height="40" viewBox="0 0 40 40" fill="none" xmlns="http://www.w3.org/2000/svg">
<rect width="40" height="40" rx="20" fill="#F0F2F5"/>
<path fill-rule="evenodd" clip-rule="evenodd" d="M20.834 12.5001C20.834 12.0398 20.4609 11.6667 20.0006 11.6667C19.5404 11.6667 19.1673 12.0398 19.1673 12.5001V12.9758C16.3405 13.38 14.1673 15.8103 14.1673 18.7492L14.1673 22.0828C14.1673 22.0828 14.1673 22.0827 14.1673 22.0828C14.1672 22.0844 14.1666 22.0956 14.163 22.1175C14.1587 22.1437 14.151 22.1794 14.1383 22.2253C14.1125 22.3184 14.0715 22.4343 14.0142 22.5713C13.8993 22.846 13.7373 23.1623 13.5582 23.4814C13.2214 24.0813 13.0516 24.7963 13.1791 25.4761C13.3135 26.1931 13.775 26.8183 14.5632 27.1184C15.2673 27.3865 16.2045 27.6317 17.4422 27.7776C17.4716 27.8031 17.5064 27.8323 17.5464 27.8643C17.6717 27.9645 17.8506 28.0944 18.0768 28.2236C18.5256 28.4801 19.1891 28.7501 20.0006 28.7501C20.8121 28.7501 21.4757 28.4801 21.9245 28.2236C22.1506 28.0944 22.3295 27.9645 22.4548 27.8643C22.4948 27.8323 22.5296 27.8031 22.5591 27.7776C23.7968 27.6317 24.734 27.3865 25.4381 27.1184C26.2262 26.8183 26.6877 26.1931 26.8221 25.4761C26.9496 24.7963 26.7798 24.0813 26.443 23.4814C26.2639 23.1623 26.1019 22.846 25.9871 22.5713C25.9298 22.4343 25.8887 22.3184 25.863 22.2253C25.8503 22.1794 25.8426 22.1437 25.8382 22.1175C25.8346 22.0956 25.834 22.0846 25.834 22.083C25.834 22.0829 25.834 22.083 25.834 22.083L25.834 22.076V18.7496C25.834 15.8107 23.6608 13.3801 20.834 12.9758V12.5001ZM15.834 18.7492C15.834 16.4482 17.6992 14.5834 20.0006 14.5834C22.3019 14.5834 24.1673 16.4485 24.1673 18.7496V22.0834C24.1673 22.4692 24.3118 22.8853 24.4494 23.2143C24.5989 23.5718 24.7948 23.9501 24.9897 24.2972C25.1792 24.6348 25.2244 24.9537 25.184 25.169C25.1506 25.3472 25.0615 25.4784 24.845 25.5609C23.9493 25.9019 22.4372 26.2501 20.0006 26.2501C17.564 26.2501 16.052 25.9019 15.1562 25.5609C14.9397 25.4784 14.8506 25.3472 14.8172 25.169C14.7769 24.9537 14.822 24.6348 15.0115 24.2972C15.2064 23.9501 15.4023 23.5718 15.5518 23.2143C15.6894 22.8853 15.834 22.4692 15.834 22.0834V18.7492Z" fill="#101928"/>
</svg>
