<svg width="20" height="21" viewBox="0 0 20 21" fill="none" xmlns="http://www.w3.org/2000/svg">
<path d="M10 13.1069C11.3807 13.1069 12.5 11.9876 12.5 10.6069C12.5 9.22622 11.3807 8.10693 10 8.10693C8.61929 8.10693 7.5 9.22622 7.5 10.6069C7.5 11.9876 8.61929 13.1069 10 13.1069Z" stroke="#E7E7E7" stroke-width="1.5" stroke-miterlimit="10" stroke-linecap="round" stroke-linejoin="round"/>
<path d="M1.66602 11.3403V9.87363C1.66602 9.00696 2.37435 8.2903 3.24935 8.2903C4.75768 8.2903 5.37435 7.22363 4.61602 5.9153C4.18268 5.1653 4.44102 4.1903 5.19935 3.75696L6.64102 2.93196C7.29935 2.5403 8.14935 2.77363 8.54102 3.43196L8.63268 3.5903C9.38268 4.89863 10.616 4.89863 11.3743 3.5903L11.466 3.43196C11.8577 2.77363 12.7077 2.5403 13.366 2.93196L14.8077 3.75696C15.566 4.1903 15.8243 5.1653 15.391 5.9153C14.6327 7.22363 15.2494 8.2903 16.7577 8.2903C17.6244 8.2903 18.341 8.99863 18.341 9.87363V11.3403C18.341 12.207 17.6327 12.9236 16.7577 12.9236C15.2494 12.9236 14.6327 13.9903 15.391 15.2986C15.8243 16.057 15.566 17.0236 14.8077 17.457L13.366 18.282C12.7077 18.6736 11.8577 18.4403 11.466 17.782L11.3743 17.6236C10.6243 16.3153 9.39102 16.3153 8.63268 17.6236L8.54102 17.782C8.14935 18.4403 7.29935 18.6736 6.64102 18.282L5.19935 17.457C4.44102 17.0236 4.18268 16.0486 4.61602 15.2986C5.37435 13.9903 4.75768 12.9236 3.24935 12.9236C2.37435 12.9236 1.66602 12.207 1.66602 11.3403Z" stroke="#E7E7E7" stroke-width="1.5" stroke-miterlimit="10" stroke-linecap="round" stroke-linejoin="round"/>
</svg>
