<svg width="362" height="361" viewBox="0 0 362 361" fill="none" xmlns="http://www.w3.org/2000/svg">
<rect width="362" height="361" fill="#1E1E1E"/>
<rect width="1440" height="1024" transform="translate(-779 -229)" fill="white"/>
<g filter="url(#filter0_d_9_27009)">
<path d="M221.554 168.573C227.428 162.699 227.428 153.175 221.554 147.301C215.68 141.427 206.156 141.427 200.282 147.301L171.12 176.463L166.88 172.223C161.006 166.349 151.482 166.349 145.608 172.223C139.734 178.097 139.734 187.621 145.608 193.495L160.484 208.371C166.358 214.245 175.882 214.245 181.756 208.371L221.554 168.573Z" fill="#D42620"/>
<path fill-rule="evenodd" clip-rule="evenodd" d="M203.377 30.3653C189.014 24.6109 172.986 24.6109 158.623 30.3653L104.074 52.2206C103.904 52.2886 103.736 52.3596 103.569 52.4337L80.2911 62.7596C59.8763 71.8155 45.623 91.7547 45.625 114.974C45.6275 144.564 47.7608 194.649 61.6722 229.013C70.922 251.862 87.5817 271.667 104.514 287.493C121.567 303.433 139.735 316.111 153.099 324.549C170.224 335.362 191.776 335.362 208.901 324.549C222.265 316.111 240.433 303.433 257.486 287.493C274.418 271.667 291.078 251.862 300.328 229.013C314.239 194.649 316.372 144.564 316.375 114.974C316.377 91.7547 302.124 71.8155 281.709 62.7596L258.431 52.4337C258.264 52.3596 258.096 52.2886 257.926 52.2206L203.377 30.3653ZM169.812 58.2907C176.993 55.4135 185.007 55.4135 192.188 58.2907L246.484 80.0441L269.51 90.2587C279.871 94.8547 286.293 104.523 286.292 114.971C286.289 144.766 283.908 189.402 272.443 217.725C265.494 234.89 252.278 251.182 236.944 265.516C221.731 279.736 205.241 291.282 192.84 299.112C185.526 303.73 176.474 303.73 169.16 299.112C156.759 291.282 140.269 279.736 125.056 265.516C109.722 251.182 96.5061 234.89 89.5573 217.725C78.0919 189.402 75.7109 144.766 75.7083 114.971C75.7075 104.523 82.1288 94.8547 92.4896 90.2587L115.517 80.0441L169.812 58.2907Z" fill="#D42620"/>
</g>
<defs>
<filter id="filter0_d_9_27009" x="35.3107" y="26.0495" width="281.064" height="327.238" filterUnits="userSpaceOnUse" color-interpolation-filters="sRGB">
<feFlood flood-opacity="0" result="BackgroundImageFix"/>
<feColorMatrix in="SourceAlpha" type="matrix" values="0 0 0 0 0 0 0 0 0 0 0 0 0 0 0 0 0 0 127 0" result="hardAlpha"/>
<feOffset dx="-10.3143" dy="20.6286"/>
<feComposite in2="hardAlpha" operator="out"/>
<feColorMatrix type="matrix" values="0 0 0 0 0.960784 0 0 0 0 0.4 0 0 0 0 0.188235 0 0 0 0.37 0"/>
<feBlend mode="normal" in2="BackgroundImageFix" result="effect1_dropShadow_9_27009"/>
<feBlend mode="normal" in="SourceGraphic" in2="effect1_dropShadow_9_27009" result="shape"/>
</filter>
</defs>
</svg>
