<svg width="564" height="132" viewBox="0 0 564 132" fill="none" xmlns="http://www.w3.org/2000/svg">
<path fill-rule="evenodd" clip-rule="evenodd" d="M0.0709229 1.49945C0.0709229 0.671023 0.742496 -0.000549316 1.57092 -0.000549316H93.6117C94.4401 -0.000549316 95.1117 0.671024 95.1117 1.49945V16.0996C95.1117 16.928 94.4401 17.5996 93.6117 17.5996H1.57092C0.742497 17.5996 0.0709229 16.928 0.0709229 16.0996V1.49945ZM100.392 1.49945C100.392 0.671023 101.063 -0.000549316 101.892 -0.000549316H135.852C136.68 -0.000549316 137.352 0.671024 137.352 1.49945V16.0996C137.352 16.928 136.68 17.5996 135.852 17.5996H101.892C101.063 17.5996 100.392 16.928 100.392 16.0996V1.49945ZM1.57092 22.8796C0.742496 22.8796 0.0709229 23.5512 0.0709229 24.3796V38.9798C0.0709229 39.8082 0.742495 40.4798 1.57092 40.4798H33.7987C34.6271 40.4798 35.2987 39.8082 35.2987 38.9798V24.3796C35.2987 23.5512 34.6271 22.8796 33.7987 22.8796H1.57092ZM40.5788 24.3796C40.5788 23.5512 41.2503 22.8796 42.0788 22.8796H135.852C136.68 22.8796 137.352 23.5512 137.352 24.3796V38.9798C137.352 39.8082 136.68 40.4798 135.852 40.4798H42.0788C41.2503 40.4798 40.5788 39.8082 40.5788 38.9798V24.3796ZM1.57092 45.7598C0.742496 45.7598 0.0709229 46.4314 0.0709229 47.2598V61.86C0.0709229 62.6884 0.742498 63.36 1.57092 63.36H115.014C115.842 63.36 116.514 62.6884 116.514 61.86V47.2598C116.514 46.4314 115.842 45.7598 115.014 45.7598H1.57092ZM121.794 47.2598C121.794 46.4314 122.465 45.7598 123.294 45.7598H135.852C136.68 45.7598 137.352 46.4314 137.352 47.2598V61.86C137.352 62.6884 136.68 63.36 135.852 63.36H123.294C122.465 63.36 121.794 62.6884 121.794 61.86V47.2598ZM1.57092 68.64C0.742496 68.64 0.0709229 69.3116 0.0709229 70.14V84.7402C0.0709229 85.5686 0.742495 86.2402 1.57092 86.2402H63.8858C64.7142 86.2402 65.3858 85.5686 65.3858 84.7402V70.14C65.3858 69.3116 64.7142 68.64 63.8858 68.64H1.57092ZM70.6658 70.14C70.6658 69.3116 71.3374 68.64 72.1658 68.64H135.852C136.68 68.64 137.352 69.3116 137.352 70.14V84.7402C137.352 85.5686 136.68 86.2402 135.852 86.2402H72.1658C71.3374 86.2402 70.6658 85.5686 70.6658 84.7402V70.14ZM1.57092 91.5202C0.742496 91.5202 0.0709229 92.1918 0.0709229 93.0202V107.62C0.0709229 108.449 0.742497 109.12 1.57092 109.12H14.9973C15.8257 109.12 16.4973 108.449 16.4973 107.62V93.0202C16.4973 92.1918 15.8257 91.5202 14.9973 91.5202H1.57092ZM21.7773 93.0202C21.7773 92.1918 22.4489 91.5202 23.2773 91.5202H135.852C136.68 91.5202 137.352 92.1918 137.352 93.0202V107.62C137.352 108.449 136.68 109.12 135.852 109.12H23.2773C22.4489 109.12 21.7773 108.449 21.7773 107.62V93.0202ZM1.57092 114.4C0.742496 114.4 0.0709229 115.072 0.0709229 115.9V130.501C0.0709229 131.329 0.742496 132.001 1.57092 132.001H135.852C136.68 132.001 137.352 131.329 137.352 130.501V115.9C137.352 115.072 136.68 114.4 135.852 114.4H1.57092Z" fill="white"/>
<path d="M189.305 63.2222C171.164 60.2743 158.692 54.832 158.692 37.938C158.692 19.6835 169.804 12.4271 194.634 12.4271C216.404 12.4271 229.669 19.4568 229.669 39.412H211.755C211.755 31.0217 202.911 30.0013 192.934 30.0013C182.502 30.0013 178.081 32.1556 178.081 36.5775C178.081 41.1127 183.296 41.9064 198.149 44.0607C218.104 47.0086 230.69 52.7911 230.69 70.3653C230.69 87.9395 219.238 95.1959 193.954 95.1959C171.958 95.1959 158.352 88.1663 158.352 68.211H176.266C176.266 76.6013 185.564 77.7351 195.881 77.7351C206.086 77.7351 211.188 76.0344 211.188 71.3857C211.188 65.1497 200.077 64.923 189.305 63.2222Z" fill="white"/>
<path d="M283.326 91.1142C277.204 108.688 274.936 119.573 256.228 119.573C242.509 119.573 236.386 110.162 236.386 97.6903H251.466C251.466 103.473 253.62 104.947 256.115 104.947C259.516 104.947 260.877 101.092 263.485 93.722L263.825 92.5882L234.799 36.8042H255.094L271.988 69.0047L283.1 36.8042H302.148L283.326 91.1142Z" fill="white"/>
<path d="M367.071 93.4952H349.044V64.4694C349.044 56.1925 346.663 51.6573 337.819 51.6573C329.996 51.6573 325.687 56.1925 325.687 65.1497V93.4952H307.773V36.8042H325.687V44.2874C329.429 38.5049 335.324 35.1035 343.601 35.1035C358.795 35.1035 367.071 41.4529 367.071 62.5419V93.4952Z" fill="white"/>
<path d="M384.137 72.2928V52.9045H372.799V36.8042H384.137L391.734 14.1278H402.052V36.8042H428.923V52.9045H402.052V71.0456C402.052 75.6942 403.526 78.6422 407.721 78.6422C411.689 78.6422 414.07 77.0548 414.07 71.9526H430.17C430.17 89.5268 421.667 95.1959 407.04 95.1959C391.394 95.1959 384.137 87.8261 384.137 72.2928Z" fill="white"/>
<path d="M476.888 57.7799C476.888 50.5234 469.858 49.7298 464.87 49.7298C460.108 49.7298 453.305 50.1833 453.305 56.4193H437.204C437.204 40.7726 447.976 35.1035 465.21 35.1035C485.165 35.1035 494.916 40.0923 494.916 60.8412V93.4952H476.888V86.1254C474.734 91.6811 469.745 95.1959 458.18 95.1959C445.028 95.1959 434.03 91.5677 434.03 76.9414C434.03 65.0363 443.327 60.9546 456.819 59.7074L476.888 57.8933V57.7799ZM476.888 70.1385L460.788 71.6125C455.346 72.066 452.511 73.1998 452.511 76.6013C452.511 79.5492 456.139 80.5697 461.241 80.5697C470.879 80.5697 476.548 77.5084 476.888 73.9935V70.1385Z" fill="white"/>
<path d="M542.273 65.1497L563.929 93.4952H542.727L531.615 78.9823L520.617 93.4952H499.415L521.071 65.1497L499.415 36.8042H520.617L531.615 51.3171L542.727 36.8042H563.929L542.273 65.1497Z" fill="white"/>
</svg>
